<?xml version="1.0" encoding="UTF-8"?>
<svg width="25px" height="18px" viewBox="0 0 25 18" version="1.1" xmlns="http://www.w3.org/2000/svg" xmlns:xlink="http://www.w3.org/1999/xlink">
    <!-- Generator: Sketch 46.2 (44496) - http://www.bohemiancoding.com/sketch -->
    <title>Icon-Multi-Bottle-White</title>
    <desc>Created with Sketch.</desc>
    <defs></defs>
    <g id="Symbols" stroke="none" stroke-width="1" fill="none" fill-rule="evenodd">
        <g id="Icon/Multi-Bottle/White" fill="#FFFFFF" fill-rule="nonzero">
            <g id="Icon-Multi-Bottle-White">
                <path d="M6.71012211,11.8174988 C6.33160728,11.8274164 5.03660346,11.9290419 4.69318702,12.8558789 L3.526881,16.0053276 C4.64405645,16.4217714 6.2086936,17.1221224 5.98935653,17.7144119 C5.7531572,18.3522356 3.84806858,17.7785513 2.73359967,17.3798738 C1.61913075,16.9811963 -0.215442979,16.2170962 0.020756347,15.5792725 C0.2399018,14.9875004 1.89670651,15.4389656 3.02486797,15.8257432 L4.191174,12.6762945 C4.53448697,11.7492251 3.60848171,10.8528857 3.3252795,10.6064482 C3.3098411,10.5938937 3.29539142,10.5807162 3.28018423,10.5680491 C3.25897082,10.5501081 3.24373936,10.5380183 3.24373936,10.5380183 C3.24369976,10.5376134 3.24389138,10.537096 3.24385179,10.5366912 C2.0023022,9.46692114 1.57582636,7.89511302 2.18727475,6.24398092 C2.80287483,4.58163774 5.25514055,0.37706271 5.35929031,0.198679133 L5.47550407,0 L12,2.33399927 L11.9587535,2.55949635 C11.9218735,2.76194424 11.0507815,7.53215044 10.4351814,9.19449361 C9.82373301,10.8456257 8.46906663,11.7802682 6.81818452,11.8153325 C6.81805677,11.8156774 6.81786515,11.8161949 6.81740274,11.8164201 C6.81740274,11.8164201 6.79782796,11.8160588 6.77007531,11.8162879 C6.75007771,11.8165566 6.73005583,11.8174026 6.71012211,11.8174988 Z M6.88989845,6.11849349 C7.29505732,6.09701189 7.67071545,6.11732465 8.01838935,6.1635668 C9.27426082,6.28428813 10.213271,6.67215594 10.5368721,6.82229491 C10.9148994,5.20173231 11.2703906,3.33754364 11.3892026,2.70148032 L5.70323573,0.667446944 C5.35321728,1.27334401 4.28054744,3.14544999 3.48562711,4.70301717 C4.02069008,5.14952151 5.43695551,6.1952626 6.88989845,6.11849349 Z"></path>
                <path d="M18.2898779,11.8174988 C18.2699442,11.8174026 18.2499223,11.8165566 18.2299247,11.8162879 C18.202172,11.8160588 18.1825973,11.8164201 18.1825973,11.8164201 C18.1821348,11.8161949 18.1819432,11.8156774 18.1818155,11.8153325 C16.5309334,11.7802682 15.176267,10.8456257 14.5648186,9.19449361 C13.9492185,7.53215044 13.0781265,2.76194424 13.0412465,2.55949635 L13,2.33399927 L19.5244959,0 L19.6407097,0.198679133 C19.7448595,0.37706271 22.1971252,4.58163774 22.8127252,6.24398092 C23.4241736,7.89511302 22.9976978,9.46692114 21.7561482,10.5366912 L21.7562606,10.5380183 C21.7562606,10.5380183 21.7410292,10.5501081 21.7198158,10.5680491 C21.7046086,10.5807162 21.6901589,10.5938937 21.6747205,10.6064482 C21.3915183,10.8528857 20.465513,11.7492251 20.808826,12.6762945 L21.975132,15.8257432 C23.1032935,15.4389656 24.7600982,14.9875004 24.9792437,15.5792725 C25.215443,16.2170962 23.3808692,16.9811963 22.2664003,17.3798738 C21.1519314,17.7785513 19.2468428,18.3522356 19.0106435,17.7144119 C18.7913064,17.1221224 20.3559436,16.4217714 21.473119,16.0053276 L20.306813,12.8558789 C19.9633965,11.9290419 18.6683927,11.8274164 18.2898779,11.8174988 Z M18.1101015,6.11849349 C19.5630445,6.1952626 20.9793099,5.14952151 21.5143729,4.70301717 C20.7194526,3.14544999 19.6467827,1.27334401 19.2967643,0.667446944 L13.6107974,2.70148032 C13.7296094,3.33754364 14.0851006,5.20173231 14.4631279,6.82229491 C14.786729,6.67215594 15.7257392,6.28428813 16.9816107,6.1635668 C17.3292845,6.11732465 17.7049427,6.09701189 18.1101015,6.11849349 Z"></path>
            </g>
        </g>
    </g>
</svg>