<?xml version="1.0" encoding="UTF-8"?>
<svg width="246px" height="49px" viewBox="0 0 246 49" version="1.1" xmlns="http://www.w3.org/2000/svg" xmlns:xlink="http://www.w3.org/1999/xlink">
    <!-- Generator: Sketch 47.1 (45422) - http://www.bohemiancoding.com/sketch -->
    <title>Helper/Logo-Admin/Horizontal/White</title>
    <desc>Created with Sketch.</desc>
    <defs></defs>
    <g id="WInery-Web" stroke="none" stroke-width="1" fill="none" fill-rule="evenodd">
        <g id="Desktop---Welcome-(Premium)" transform="translate(-254.000000, -364.000000)" fill="#FFFFFF">
            <g id="Helper/Logo/Horizontal/White" transform="translate(254.000000, 364.000000)">
                <g id="Logo-Horizontal-White">
                    <path d="M43.9535884,37.4804285 C43.9535884,38.2775072 44.376612,38.8824239 45.2226719,39.2951968 C46.0687318,39.7079697 47.1967948,39.9143531 48.6068947,39.9143531 C50.0169945,39.9143531 51.1732591,39.6652697 52.075723,39.1670956 C52.9781869,38.6689214 53.4294121,38.0497713 53.4294121,37.3096268 C53.4294121,36.6548836 53.1544467,36.2136502 52.6045078,35.9859135 C52.0545688,35.7581767 51.2578744,35.64431 50.2144005,35.64431 L48.0569585,35.64431 C47.3237065,35.64431 46.7314735,35.62296 46.2802415,35.5802594 C45.8290096,35.5375587 45.4341875,35.4735087 45.0957636,35.3881074 C44.3343096,36.0713177 43.9535884,36.7687511 43.9535884,37.4804285 Z M38.8349515,38.4625384 C38.8349515,36.7545127 39.8361073,35.3311792 41.8384492,34.1924954 L41.8384492,34.0216937 C41.2744092,33.6516214 40.8090832,33.1819214 40.4424573,32.6125795 C40.0758313,32.0432375 39.8925211,31.3173375 39.8925211,30.4348575 C39.8925211,29.6662459 40.1181337,28.9332292 40.5693656,28.2357853 C41.0205976,27.5383415 41.5846291,26.9476581 42.261477,26.4637174 L42.261477,26.2929157 C41.5282251,25.780508 40.8725385,25.0474913 40.2943975,24.0938436 C39.7162566,23.1401958 39.4271904,22.0371124 39.4271904,20.7845602 C39.4271904,19.5035409 39.6669038,18.3862241 40.1463378,17.4325764 C40.6257717,16.4789287 41.2673575,15.6818619 42.0711145,15.0413523 C42.8748714,14.4008426 43.7984729,13.9240259 44.8419468,13.6108878 C45.8854207,13.2977498 46.9711814,13.1411831 48.0992612,13.1411831 C49.3401491,13.1411831 50.4259097,13.3119831 51.3565756,13.6535883 L59.0133796,13.6535883 L59.0133796,18.2225343 L55.6714597,18.2225343 C55.8688736,18.5356724 56.0310327,18.9342058 56.1579417,19.4181464 C56.2848507,19.902087 56.3483042,20.4287204 56.3483042,20.9980623 C56.3483042,22.2221475 56.1367924,23.2825309 55.7137624,24.1792444 C55.2907325,25.0759579 54.7055498,25.8160913 53.9581969,26.3996668 C53.210844,26.9832423 52.3365952,27.417359 51.3354243,27.7020299 C50.3342533,27.9867009 49.2555431,28.1290342 48.0992612,28.1290342 C47.2814033,28.1290342 46.4353561,27.9867009 45.5610942,27.7020299 C45.2790742,27.9297667 45.0816632,28.1575001 44.9688552,28.3852368 C44.8560472,28.6129736 44.7996441,28.9118736 44.7996441,29.2819459 C44.7996441,29.8228207 45.032307,30.2213541 45.49764,30.4775579 C45.962973,30.7337618 46.787869,30.8618618 47.9723529,30.8618618 L51.3565756,30.8618618 C53.9511594,30.8618618 55.93232,31.2817452 57.3001169,32.1215245 C58.6679137,32.9613038 59.3518019,34.3348206 59.3518019,36.2421161 C59.3518019,37.3523328 59.0768366,38.3700162 58.5268976,39.2951968 C57.9769587,40.2203775 57.194365,41.0174442 56.1790931,41.686421 C55.1638212,42.3553977 53.9370527,42.8820311 52.4987508,43.2663369 C51.060449,43.6506427 49.4388584,43.8427927 47.6339306,43.8427927 C46.3930427,43.8427927 45.2438286,43.7360427 44.1862537,43.5225395 C43.1286788,43.3090363 42.1980268,42.9887862 41.3942699,42.5617798 C40.590513,42.1347733 39.963028,41.5796733 39.511796,40.896463 C39.0605641,40.2132527 38.8349515,39.4019526 38.8349515,38.4625384 Z M48.0992612,24.3286959 C48.9171192,24.3286959 49.6010073,24.0369126 50.1509463,23.4533371 C50.7008852,22.8697616 50.9758506,21.9801782 50.9758506,20.7845602 C50.9758506,19.6743434 50.7008852,18.82746 50.1509463,18.2438846 C49.6010073,17.6603091 48.9171192,17.3685257 48.0992612,17.3685257 C47.2814033,17.3685257 46.5975151,17.6531924 46.0475762,18.2225343 C45.4976373,18.7918763 45.2226719,19.6458763 45.2226719,20.7845602 C45.2226719,21.9801782 45.4976373,22.8697616 46.0475762,23.4533371 C46.5975151,24.0369126 47.2814033,24.3286959 48.0992612,24.3286959 Z M62.7360247,4.9 L68.954534,4.9 L68.954534,28.5133381 C68.954534,29.1680813 69.0743907,29.623548 69.3141076,29.8797519 C69.5538246,30.1359558 69.8005884,30.2640558 70.0544064,30.2640558 L70.41398,30.2640558 C70.512687,30.2640558 70.6466445,30.2355891 70.8158565,30.1786549 L71.5773066,34.8330018 C71.2388826,34.9753373 70.8088086,35.0963207 70.2870717,35.1959555 C69.7653347,35.2955903 69.1519505,35.345407 68.4469005,35.345407 C67.3752247,35.345407 66.4727743,35.174607 65.7395223,34.8330018 C65.0062704,34.4913967 64.4210878,34.01458 63.9839568,33.4025374 C63.5468258,32.7904949 63.2295581,32.0503615 63.0321441,31.182115 C62.8347302,30.3138686 62.7360247,29.3388852 62.7360247,28.2571355 L62.7360247,4.9 Z M74.0731709,28.9403424 C74.0731709,26.7199089 75.0038228,24.9834421 76.8651546,23.7308899 C78.7264865,22.4783377 81.7299541,21.6385709 85.8756477,21.2115645 C85.8192437,20.2721503 85.537228,19.5249003 85.029592,18.9697919 C84.5219561,18.4146835 83.7041104,18.1371335 82.5760305,18.1371335 C81.6735666,18.1371335 80.7711163,18.3079335 79.8686523,18.6495387 C78.9661884,18.9911438 78.0073349,19.4608438 76.992063,20.0586529 L74.7923182,15.9167111 C76.1460141,15.0911653 77.5631432,14.4221986 79.043748,13.9097909 C80.5243529,13.3973831 82.0965907,13.1411831 83.7605085,13.1411831 C86.4679002,13.1411831 88.5336656,13.9168998 89.9578664,15.4683566 C91.3820673,17.0198133 92.094157,19.4323635 92.094157,22.7060796 L92.094157,34.8330018 L87.0178229,34.8330018 L86.5524923,32.6552799 L86.4255839,32.6552799 C85.52312,33.4523586 84.5713169,34.0999753 83.570146,34.5981495 C82.5689751,35.0963237 81.4761641,35.345407 80.2916802,35.345407 C79.3328123,35.345407 78.4726643,35.1817237 77.7112103,34.8543521 C76.9497564,34.5269805 76.3011202,34.0715138 75.7652823,33.4879383 C75.2294443,32.9043628 74.8134711,32.2282794 74.5173501,31.4596678 C74.2212291,30.6910562 74.0731709,29.8512895 74.0731709,28.9403424 Z M79.9955607,28.4706377 C79.9955607,29.153848 80.2141229,29.6591314 80.6512539,29.986503 C81.0883848,30.3138746 81.6735675,30.4775579 82.4068194,30.4775579 C83.1400713,30.4775579 83.760506,30.3209912 84.2681419,30.0078532 C84.7757779,29.6947151 85.3116078,29.2534818 85.8756477,28.6841398 L85.8756477,24.9692024 C83.6476899,25.2823404 82.1107041,25.7378071 81.2646442,26.3356162 C80.4185843,26.9334252 79.9955607,27.6450919 79.9955607,28.4706377 Z M98.3549691,28.4706377 C99.313837,29.2107822 100.230388,29.7658822 101.10465,30.1359545 C101.978912,30.5060267 102.867262,30.6910601 103.769726,30.6910601 C104.700391,30.6910601 105.377229,30.5344934 105.800259,30.2213553 C106.223289,29.9082173 106.434801,29.4669839 106.434801,28.897642 C106.434801,28.5560368 106.314944,28.2500201 106.075227,27.9795827 C105.83551,27.7091453 105.511192,27.460062 105.102263,27.2323252 C104.693334,27.0045884 104.235059,26.7982051 103.727423,26.613169 C103.219787,26.4281328 102.698058,26.2217495 102.16222,25.9940127 C101.513574,25.7378088 100.864938,25.4389088 100.216292,25.0973037 C99.5676457,24.7556985 98.9754127,24.3358151 98.4395747,23.837641 C97.9037368,23.3394668 97.4666124,22.7559001 97.1281884,22.0869233 C96.7897644,21.4179466 96.620555,20.6422298 96.620555,19.7597498 C96.620555,18.7918686 96.8109156,17.8951685 97.1916426,17.0696227 C97.5723695,16.2440769 98.1152498,15.5466435 98.8202998,14.9773016 C99.5253497,14.4079597 100.371397,13.9596097 101.358467,13.6322381 C102.345537,13.3048665 103.445398,13.1411831 104.658084,13.1411831 C106.265598,13.1411831 107.675677,13.4187331 108.888362,13.9738415 C110.101048,14.5289499 111.158607,15.1480999 112.061071,15.8313102 L109.269088,19.5889481 C108.507634,19.0196062 107.760292,18.5783728 107.02704,18.2652348 C106.293788,17.9520967 105.560547,17.79553 104.827295,17.79553 C103.247983,17.79553 102.458339,18.3506301 102.458339,19.4608468 C102.458339,19.802452 102.571146,20.0942353 102.796761,20.3362057 C103.022377,20.578176 103.325544,20.7987927 103.706271,20.9980623 C104.086998,21.197332 104.524123,21.389482 105.017658,21.5745181 C105.511193,21.7595543 106.025871,21.9517043 106.561709,22.150974 C107.238557,22.4071778 107.908345,22.6989612 108.571092,23.0263328 C109.233839,23.3537044 109.840172,23.7593544 110.390111,24.2432951 C110.94005,24.7272357 111.384225,25.3179191 111.722649,26.0153629 C112.061073,26.7128068 112.230282,27.5454569 112.230282,28.5133381 C112.230282,29.4812194 112.046972,30.3779195 111.680346,31.2034652 C111.31372,32.029011 110.76379,32.7477944 110.030538,33.359837 C109.297286,33.9718796 108.394835,34.4558129 107.323159,34.8116516 C106.251484,35.1674903 105.010614,35.345407 103.600514,35.345407 C102.218617,35.345407 100.801487,35.0749737 99.3490846,34.5340988 C97.8966817,33.993224 96.6346613,33.2815573 95.5629854,32.3990773 L98.3549691,28.4706377 Z M117.095103,28.4706377 C118.053971,29.2107822 118.970522,29.7658822 119.844784,30.1359545 C120.719046,30.5060267 121.607395,30.6910601 122.509859,30.6910601 C123.440525,30.6910601 124.117363,30.5344934 124.540393,30.2213553 C124.963423,29.9082173 125.174934,29.4669839 125.174934,28.897642 C125.174934,28.5560368 125.055078,28.2500201 124.815361,27.9795827 C124.575644,27.7091453 124.251326,27.460062 123.842397,27.2323252 C123.433468,27.0045884 122.975192,26.7982051 122.467556,26.613169 C121.95992,26.4281328 121.438191,26.2217495 120.902353,25.9940127 C120.253707,25.7378088 119.605071,25.4389088 118.956425,25.0973037 C118.307779,24.7556985 117.715546,24.3358151 117.179708,23.837641 C116.64387,23.3394668 116.206746,22.7559001 115.868322,22.0869233 C115.529898,21.4179466 115.360688,20.6422298 115.360688,19.7597498 C115.360688,18.7918686 115.551049,17.8951685 115.931776,17.0696227 C116.312503,16.2440769 116.855383,15.5466435 117.560433,14.9773016 C118.265483,14.4079597 119.11153,13.9596097 120.0986,13.6322381 C121.08567,13.3048665 122.185532,13.1411831 123.398218,13.1411831 C125.005731,13.1411831 126.41581,13.4187331 127.628496,13.9738415 C128.841182,14.5289499 129.898741,15.1480999 130.801205,15.8313102 L128.009221,19.5889481 C127.247767,19.0196062 126.500425,18.5783728 125.767173,18.2652348 C125.033922,17.9520967 124.300681,17.79553 123.567429,17.79553 C121.988117,17.79553 121.198473,18.3506301 121.198473,19.4608468 C121.198473,19.802452 121.311279,20.0942353 121.536895,20.3362057 C121.762511,20.578176 122.065678,20.7987927 122.446405,20.9980623 C122.827132,21.197332 123.264256,21.389482 123.757791,21.5745181 C124.251326,21.7595543 124.766005,21.9517043 125.301843,22.150974 C125.978691,22.4071778 126.648478,22.6989612 127.311225,23.0263328 C127.973972,23.3537044 128.580306,23.7593544 129.130245,24.2432951 C129.680184,24.7272357 130.124359,25.3179191 130.462783,26.0153629 C130.801206,26.7128068 130.970416,27.5454569 130.970416,28.5133381 C130.970416,29.4812194 130.787106,30.3779195 130.42048,31.2034652 C130.053854,32.029011 129.503923,32.7477944 128.770671,33.359837 C128.037419,33.9718796 127.134969,34.4558129 126.063293,34.8116516 C124.991617,35.1674903 123.750748,35.345407 122.340648,35.345407 C120.95875,35.345407 119.541621,35.0749737 118.089218,34.5340988 C116.636815,33.993224 115.374795,33.2815573 114.303119,32.3990773 L117.095103,28.4706377 Z M134.904575,4.9 L141.123084,4.9 L141.123084,12.2444741 L140.826965,16.0448124 C141.616621,15.333135 142.533172,14.6712849 143.576646,14.0592424 C144.62012,13.4471998 145.860989,13.1411831 147.299291,13.1411831 C149.583652,13.1411831 151.240495,13.8955498 152.269868,15.4043059 C153.299241,16.913062 153.81392,19.0053622 153.81392,21.6812692 L153.81392,34.8330018 L147.59541,34.8330018 L147.59541,22.4925774 C147.59541,20.9553542 147.390949,19.9020875 146.98202,19.3327455 C146.573091,18.7634036 145.917404,18.4787369 145.01494,18.4787369 C144.225284,18.4787369 143.548447,18.6566536 142.984407,19.0124923 C142.420367,19.368331 141.799932,19.8736144 141.123084,20.5283576 L141.123084,34.8330018 L134.904575,34.8330018 L134.904575,4.9 Z M157.832684,24.2432951 C157.832684,22.4783351 158.1147,20.9055516 158.67874,19.5248975 C159.24278,18.1442433 159.997172,16.9842266 160.941939,16.0448124 C161.886706,15.1053982 162.979517,14.3866148 164.220404,13.8884406 C165.461292,13.3902665 166.744464,13.1411831 168.069958,13.1411831 C169.395452,13.1411831 170.671573,13.3902665 171.89836,13.8884406 C173.125147,14.3866148 174.210907,15.1053982 175.155674,16.0448124 C176.100441,16.9842266 176.854833,18.1442433 177.418873,19.5248975 C177.982913,20.9055516 178.264929,22.4783351 178.264929,24.2432951 C178.264929,26.008255 177.982913,27.5810385 177.418873,28.9616926 C176.854833,30.3423468 176.100441,31.5023636 175.155674,32.4417777 C174.210907,33.3811919 173.125147,34.0999753 171.89836,34.5981495 C170.671573,35.0963237 169.395452,35.345407 168.069958,35.345407 C166.744464,35.345407 165.461292,35.0963237 164.220404,34.5981495 C162.979517,34.0999753 161.886706,33.3811919 160.941939,32.4417777 C159.997172,31.5023636 159.24278,30.3423468 158.67874,28.9616926 C158.1147,27.5810385 157.832684,26.008255 157.832684,24.2432951 Z M164.220404,24.2432951 C164.220404,26.0936563 164.537672,27.5596898 165.172217,28.6414394 C165.806762,29.7231891 166.772666,30.2640558 168.069958,30.2640558 C169.339048,30.2640558 170.297901,29.7231891 170.946547,28.6414394 C171.595193,27.5596898 171.919511,26.0936563 171.919511,24.2432951 C171.919511,22.3929338 171.595193,20.9269004 170.946547,19.8451507 C170.297901,18.7634011 169.339048,18.2225343 168.069958,18.2225343 C166.772666,18.2225343 165.806762,18.7634011 165.172217,19.8451507 C164.537672,20.9269004 164.220404,22.3929338 164.220404,24.2432951 Z M188.756019,36.4983186 L188.756019,42.6898811 L182.53751,42.6898811 L182.53751,13.6535883 L187.613844,13.6535883 L188.036872,15.7459094 L188.206083,15.7459094 C189.023941,15.0057649 189.947543,14.3866148 190.976916,13.8884406 C192.006289,13.3902665 193.070898,13.1411831 194.170776,13.1411831 C195.439866,13.1411831 196.582029,13.3973831 197.597301,13.9097909 C198.612573,14.4221986 199.472721,15.1480986 200.177771,16.0875128 C200.882821,17.026927 201.425701,18.1584771 201.806428,19.482197 C202.187155,20.805917 202.377516,22.2790671 202.377516,23.9016916 C202.377516,25.7235858 202.130752,27.3390692 201.637217,28.7481905 C201.143682,30.1573117 200.480945,31.3529118 199.648986,32.3350267 C198.817028,33.3171415 197.872275,34.0643915 196.8147,34.5767993 C195.757125,35.089207 194.664314,35.345407 193.536234,35.345407 C192.63377,35.345407 191.759521,35.153257 190.913461,34.7689512 C190.067402,34.3846454 189.277757,33.836662 188.544506,33.1249846 L188.756019,36.4983186 Z M188.756019,28.8549416 C189.320059,29.3673493 189.884091,29.7231827 190.448131,29.9224523 C191.012171,30.121722 191.562101,30.2213553 192.097939,30.2213553 C193.169615,30.2213553 194.086166,29.7303053 194.84762,28.7481905 C195.609074,27.7660757 195.989796,26.1790589 195.989796,23.9870925 C195.989796,20.1725016 194.777128,18.2652348 192.351756,18.2652348 C191.13907,18.2652348 189.940503,18.9057348 188.756019,20.1867542 L188.756019,28.8549416 Z M212.995515,36.4983186 L212.995515,42.6898811 L206.777006,42.6898811 L206.777006,13.6535883 L211.85334,13.6535883 L212.276368,15.7459094 L212.445579,15.7459094 C213.263437,15.0057649 214.187038,14.3866148 215.216411,13.8884406 C216.245784,13.3902665 217.310393,13.1411831 218.410271,13.1411831 C219.679361,13.1411831 220.821525,13.3973831 221.836797,13.9097909 C222.852069,14.4221986 223.712217,15.1480986 224.417267,16.0875128 C225.122317,17.026927 225.665197,18.1584771 226.045924,19.482197 C226.426651,20.805917 226.617011,22.2790671 226.617011,23.9016916 C226.617011,25.7235858 226.370248,27.3390692 225.876713,28.7481905 C225.383178,30.1573117 224.720441,31.3529118 223.888482,32.3350267 C223.056523,33.3171415 222.11177,34.0643915 221.054195,34.5767993 C219.99662,35.089207 218.903809,35.345407 217.77573,35.345407 C216.873266,35.345407 215.999017,35.153257 215.152957,34.7689512 C214.306897,34.3846454 213.517253,33.836662 212.784001,33.1249846 L212.995515,36.4983186 Z M212.995515,28.8549416 C213.559555,29.3673493 214.123586,29.7231827 214.687626,29.9224523 C215.251666,30.121722 215.801597,30.2213553 216.337435,30.2213553 C217.409111,30.2213553 218.325662,29.7303053 219.087116,28.7481905 C219.84857,27.7660757 220.229291,26.1790589 220.229291,23.9870925 C220.229291,20.1725016 219.016623,18.2652348 216.591252,18.2652348 C215.378566,18.2652348 214.179999,18.9057348 212.995515,20.1867542 L212.995515,28.8549416 Z M231.016501,13.6535883 L236.092835,13.6535883 L236.515863,17.3685257 L236.685074,17.3685257 C237.446528,15.9167038 238.363079,14.8492037 239.434755,14.1659934 C240.506431,13.4827831 241.578091,13.1411831 242.649767,13.1411831 C243.242009,13.1411831 243.728486,13.1767664 244.109213,13.2479342 C244.48994,13.3191019 244.835409,13.4258519 245.145631,13.5681874 L244.130364,18.9911421 C243.735536,18.8772737 243.368916,18.7918737 243.030492,18.7349395 C242.692068,18.6780053 242.297246,18.6495387 241.846014,18.6495387 C241.056358,18.6495387 240.231462,18.9342053 239.371301,19.5035473 C238.51114,20.0728892 237.79905,21.0834559 237.23501,22.5352778 L237.23501,34.8330018 L231.016501,34.8330018 L231.016501,13.6535883 Z" id="glasshoppr"></path>
                    <g id="Group">
                        <path d="M12.8195322,46.5287946 C17.3323837,46.5287946 20.9688213,47.06589 20.9688213,47.7619399 C20.9688213,48.4255331 17.3323837,48.9638768 12.8195322,48.9638768 C8.30616548,48.9638768 4.57604727,48.4255331 4.57604727,47.7619399 C4.57604727,47.06589 8.30616548,46.5287946 12.8195322,46.5287946" id="Fill-1"></path>
                        <path d="M12.9453879,37.6722131 C12.9453879,30.080266 7.42863853,26.664722 3.91803603,21.5085853 C1.47337299,17.9027745 4.12236084e-05,12.8735517 4.12236084e-05,7.27467277 C4.12236084e-05,4.68115629 0.344773649,2.24544995 0.940660909,1.0403397e-05 C-0.752186572,31.9144837 26.6418288,31.9144837 25.0120534,1.0403397e-05 C25.6075284,2.24544995 25.8890857,4.68115629 25.8890857,7.27467277 C25.8890857,12.8735517 24.4167845,17.9027745 21.9710909,21.5085853 C18.4609006,26.664722 12.9453879,30.080266 12.9453879,37.6722131" id="Fill-3"></path>
                        <path d="M7.36600956,18.3772452 C4.38811914,14.8980362 3.63589135,9.39423871 3.63589135,9.39423871 C3.63589135,9.39423871 5.32884189,14.8347874 8.55675349,18.3772452 L7.36600956,18.3772452 Z M13.0706356,21.2237572 C10.9076328,21.2237572 9.2463214,20.3384809 7.89872164,18.9782137 L9.18366151,18.9782137 C10.3122609,20.1482141 11.5972007,20.9394493 13.0706356,21.2237572 L13.0706356,21.2237572 Z M2.44514742,7.62274971 C2.82100367,11.5132845 3.98072683,15.6567108 6.26894628,18.788571 C7.89872164,20.9394493 10.1864258,22.6471693 12.9454188,22.6471693 C15.7026599,22.6471693 17.9908793,20.9394493 19.6207578,18.788571 C21.9710187,15.6567108 23.0685973,11.5132845 23.5387526,7.62274971 C23.5387526,7.62274971 20.2792018,14.2964436 11.7850773,12.7152214 C11.7850773,12.7152214 14.7624524,13.0000495 17.2702907,11.9878592 C12.1925727,12.5887237 7.74186581,7.14827903 2.44514742,7.62274971 L2.44514742,7.62274971 Z" id="Fill-5"></path>
                    </g>
                </g>
            </g>
        </g>
    </g>
</svg>