<?xml version="1.0" encoding="UTF-8"?>
<svg width="40px" height="40px" viewBox="0 0 40 40" version="1.1" xmlns="http://www.w3.org/2000/svg" xmlns:xlink="http://www.w3.org/1999/xlink">
    <!-- Generator: Sketch 45.2 (43514) - http://www.bohemiancoding.com/sketch -->
    <title>Icon-Success-White</title>
    <desc>Created with Sketch.</desc>
    <defs></defs>
    <g id="Symbols" stroke="none" stroke-width="1" fill="none" fill-rule="evenodd">
        <g id="Icon/Success/White" fill-rule="nonzero" fill="#FFFFFF">
            <path d="M29.3956884,37.6540001 L29.1270859,35.8740745 C28.6733443,32.8717861 24.4832653,29.0492003 21.2784807,29.1359175 L19.0322721,14.2543169 C19.4414833,13.9801032 19.6833538,13.4869873 19.6055427,12.9699655 L19.1747694,10.1167369 C19.0674277,9.40284381 18.3943151,8.90691545 17.680422,9.01472596 L10.8649226,10.0436132 C10.1510296,10.1514238 9.65463246,10.8240676 9.76244297,11.5374919 L10.1927475,14.3907206 C10.2710273,14.9077423 10.6474267,15.3075787 11.1194492,15.4486698 L13.3656578,30.3298017 C11.1698521,30.9437869 9.08035113,33.5958346 8.22087744,36.1565112 C3.24012969,32.5160639 0,26.6307229 0,20 C0,8.96842105 8.96842105,0 20,0 C31.0315789,0 40,8.96842105 40,20 C40,27.6373145 35.70145,34.2857606 29.3956884,37.6540001 Z M30.957406,7.65781527 C30.8978434,7.6117023 30.7079477,7.54285309 30.5359847,7.50506607 L23.9014818,6.04450193 C23.7295189,6.00671492 23.5284151,5.98974279 23.4547625,6.00639469 C23.3811098,6.0230466 23.2616644,6.30548851 23.2238774,6.47745144 L23.044229,7.29211384 C23.006442,7.46407677 22.9865878,7.66454008 23.0000374,7.73755227 C23.013487,7.81056447 23.3052155,7.931611 23.4771785,7.96971825 L25.4055971,8.3943418 C25.57756,8.43212882 25.7171798,8.46671354 25.7155787,8.47087652 C25.7139775,8.47503949 25.7088539,8.49809598 25.7056516,8.51218605 C25.7021291,8.52627612 25.6986065,8.54420894 25.6970054,8.55125398 C25.695084,8.55829901 25.6915615,8.57431046 25.6896401,8.58679939 C25.6870783,8.59928832 25.6829153,8.62394594 25.6800333,8.64187876 C25.6771512,8.65981158 25.6710669,8.71457073 25.6662634,8.7629253 C25.6662634,8.7629253 25.6662634,8.7629253 25.665623,8.80743712 C25.6653027,8.84842642 25.6681848,8.88525275 25.6707466,8.92464091 C25.6854772,9.07995194 25.741197,9.2301393 25.809726,9.3518263 C25.8772943,9.47511443 25.9583122,9.57534609 26.0367683,9.66276859 C26.19304,9.83601243 26.3505926,9.96922767 26.4697178,10.094117 C26.5286399,10.1559211 26.5766743,10.2148433 26.6038937,10.2625574 C26.6320739,10.3112322 26.6320739,10.3112322 26.6320739,10.3112322 C26.6387987,10.344536 26.6442426,10.37816 26.644883,10.3861657 C26.6455235,10.3938512 26.6410403,10.4229921 26.6407201,10.4245932 C26.6407201,10.4261943 26.6384784,10.4351608 26.6359166,10.4444474 C26.6333548,10.453734 26.6301525,10.4646218 26.6291918,10.469105 C26.6279109,10.473268 26.6256693,10.4783917 26.6253491,10.4780714 C26.6250288,10.4780714 26.6247086,10.477431 26.6243884,10.4771107 C26.6240681,10.4767905 26.6122197,10.4979256 26.5962082,10.5245046 C26.5962082,10.5245046 26.5962082,10.5245046 26.5529773,10.5578084 C26.4658751,10.625697 26.2762995,10.6945462 26.0521393,10.7694798 C25.9387782,10.8079072 25.813889,10.8520988 25.6784321,10.9158244 C25.5458573,10.9798702 25.3937486,11.0724163 25.2589322,11.2165193 C25.1920044,11.2895315 25.1920044,11.2895315 25.1920044,11.2895315 C25.1346834,11.3868811 25.0789636,11.4871128 25.0677556,11.5127311 C25.0565475,11.5383494 25.0258056,11.6219292 25.0206819,11.6411429 C25.0155582,11.6603566 25.0091537,11.6840536 25.0065918,11.6939807 C25.00403,11.7039078 24.999867,11.7218406 24.9979457,11.7343295 C24.9953838,11.7468184 24.9915411,11.7669929 24.9899399,11.7791616 C24.9883388,11.7913303 24.985777,11.806381 24.9848163,11.8124654 C24.9841758,11.81887 24.9812937,11.8486512 24.9803331,11.8611402 C24.9790521,11.8736291 24.9780915,11.9091745 24.9777712,11.9402367 C24.9771308,11.9709787 24.9953838,12.1394191 25.0136369,12.2518195 C25.0136369,12.2518195 25.0136369,12.2518195 25.0507834,12.3405229 C25.0587891,12.361658 25.0587891,12.361658 25.0587891,12.361658 C25.0693567,12.3827931 24.9345403,12.3831133 24.7596953,12.3622984 L23.7420078,12.2415721 C23.5671628,12.2207573 23.4134529,12.3475679 23.4006438,12.5230534 L22.9158172,19.0771788 C22.903008,19.2526643 23.0355828,19.4134192 23.2104278,19.4342341 L26.4962968,19.8245931 C26.6711418,19.8450878 26.8376608,19.7201985 26.8661612,19.5463142 L27.9299617,13.0613582 C27.9584621,12.8874739 27.8386965,12.7283201 27.6638515,12.7078255 L26.6695407,12.589661 C26.4946957,12.5691663 26.3086427,12.509924 26.2561251,12.4583671 C26.2561251,12.4583671 26.2561251,12.4583671 26.2112931,12.4154564 C26.1251515,12.3337981 26.0466954,12.258224 25.9868126,12.1893748 C25.9278905,12.1218065 25.9278905,12.1218065 25.9278905,12.1218065 C25.8971485,12.065126 25.8696088,12.0106871 25.8667267,12.00076 C25.8638447,11.9908329 25.858721,11.9616921 25.8580806,11.9565684 C25.8577603,11.9511245 25.8577603,11.9520852 25.8577603,11.9520852 C25.8577603,11.9520852 25.8564794,11.9530459 25.8555187,11.9540066 C25.8548783,11.9549672 25.8584008,11.9354333 25.8606424,11.9232646 C25.862884,11.9110959 25.8644851,11.9008486 25.8644851,11.9005283 C25.8648054,11.9002081 25.8651256,11.8989272 25.8654458,11.8979665 C25.865766,11.8970058 25.8667267,11.8934833 25.8676874,11.8906012 C25.8689683,11.8877192 25.8718504,11.8761909 25.8734515,11.8713875 C25.8750527,11.8665841 25.8878618,11.8435276 25.8968283,11.8291173 C25.8968283,11.8291173 25.8968283,11.8291173 25.908997,11.814707 C25.9573515,11.7545039 26.1267526,11.673486 26.3381037,11.604957 C26.5488143,11.529383 26.804357,11.4640563 27.0816753,11.2651941 C27.2190535,11.1640018 27.3522687,11.0150953 27.4307248,10.8373683 C27.4422531,10.8114297 27.4422531,10.8114297 27.4422531,10.8114297 C27.4528206,10.7826091 27.4646691,10.7499458 27.4688321,10.739058 C27.4726748,10.7281702 27.4768378,10.7144004 27.4784389,10.708316 C27.4800401,10.7022317 27.4838828,10.6884618 27.4867649,10.6775741 C27.4902874,10.6666863 27.4934897,10.6554783 27.4941301,10.6529164 C27.4947706,10.6503546 27.496692,10.6413882 27.4986133,10.6333825 C27.5005347,10.6253767 27.5021359,10.6170508 27.5027763,10.614489 C27.5034168,10.6119271 27.5050179,10.6026405 27.5069393,10.5936741 C27.5085404,10.5847077 27.5194282,10.495684 27.5312767,10.3964131 C27.5312767,10.3964131 27.5312767,10.3964131 27.5242317,10.3032264 C27.510782,10.1139711 27.4409721,9.94232844 27.3609149,9.80975366 C27.2811779,9.6762182 27.1921543,9.57502586 27.1101757,9.48792359 C26.9433364,9.3153202 26.7947502,9.18786909 26.6919567,9.0729069 C26.6413605,9.01718707 26.6035735,8.96563021 26.5808372,8.92528137 C26.5587414,8.88461229 26.5587414,8.88461229 26.5587414,8.88461229 C26.5529773,8.8570726 26.5488143,8.83113406 26.5484941,8.82761154 C26.5481739,8.82408902 26.5484941,8.8183249 26.5481739,8.81864513 C26.5478537,8.81928559 26.5472132,8.80775735 26.5500953,8.79462796 C26.5529773,8.78117835 26.5555392,8.76965011 26.5558594,8.76900965 C26.5564998,8.76836919 26.5574605,8.76644782 26.5584212,8.76484667 C26.5593819,8.76324553 26.5606628,8.75972301 26.5616235,8.75716118 C26.5629044,8.75427912 26.5696292,8.74403179 26.5773147,8.73474515 C26.5850002,8.72513829 26.5942869,8.68126692 26.595888,8.67646349 C26.5974891,8.67133983 26.7425528,8.68927265 26.9145158,8.72705966 L27.3196054,8.8160833 C27.4915683,8.85387031 27.7730495,8.91599473 27.9450125,8.95378174 L30.1123219,9.43092284 C30.2842848,9.46870986 30.4853886,9.48568199 30.5593614,9.46903008 C30.6326939,9.45205795 30.7524595,9.16993627 30.7902465,8.99797333 L30.9695747,8.18331094 C31.0070415,8.01038732 31.0172888,7.70424846 30.957406,7.65781527 Z" id="Combined-Shape"></path>
        </g>
    </g>
</svg>